#!OML:ASF F:\VICON\USERDATA\INSTALL\rory3\rory3.ASF
:FULLY-SPECIFIED
:DEGREES
344
root 4.45002 16.9758 0.276182 11.3745 -0.18929 -1.04372
lowerback 2.15128 -2.78425 6.03279
upperback -1.3474 -3.50884 0.277896
thorax -2.94587 -1.86281 -2.91254
lowerneck -9.74753 1.67438 -1.48455
upperneck 48.0663 3.70027 -1.58505
head 20.8995 0.874965 0.122273
rclavicle -7.76503e-015 -1.08338e-014
rhumerus -12.939 6.31942 -43.9201
rradius 111.848
rwrist -54.0701
rhand 0.65764 -40.8149
rfingers 7.12502
rthumb 26.2201 -69.0236
lclavicle -7.76503e-015 -1.08338e-014
lhumerus 27.3527 8.16919 31.3469
lradius 92.9373
lwrist 56.993
lhand -23.5299 -26.4138
lfingers 7.12502
lthumb 2.9314 3.54584
rfemur -51.7467 5.58122 15.6206
rtibia 72.636
rfoot 6.85431 -1.63262
rtoes -20.8508
lfemur -28.457 1.76123 -29.7492
ltibia 38.0659
lfoot -18.8089 11.4856
ltoes 7.97707
345
root 4.44113 16.9694 0.261813 11.4235 -0.222645 -1.20866
lowerback 2.45251 -2.77396 6.13199
upperback -1.30261 -3.46992 0.326687
thorax -3.06863 -1.84664 -2.90582
lowerneck -9.94562 1.77755 -1.41688
upperneck 48.0403 3.90139 -1.67268
head 20.9502 0.95296 0.105758
rclavicle -7.31528e-014 1.98785e-015
rhumerus -12.9887 6.45693 -44.5432
rradius 111.789
rwrist -54.0441
rhand 0.840826 -40.4882
rfingers 7.12502
rthumb 26.3955 -68.6707
lclavicle -7.31528e-014 1.98785e-015
lhumerus 27.2843 7.99403 32.012
lradius 93.2564
lwrist 57.0637
lhand -23.639 -25.8512
lfingers 7.12502
lthumb 2.82604 4.10981
rfemur -52.0178 5.83009 15.8482
rtibia 72.726
rfoot 6.5391 -0.668402
rtoes -21.0217
lfemur -28.7527 1.696 -29.5363
ltibia 38.3168
lfoot -18.8085 11.641
ltoes 7.71185
346
root 4.43556 16.9623 0.251259 11.5299 -0.202053 -1.21145
lowerback 2.57789 -2.77602 6.13404
upperback -1.34987 -3.46234 0.309763
thorax -3.18893 -1.84723 -2.91705
lowerneck -9.87281 1.81273 -1.47038
upperneck 48.101 3.96424 -1.64354
head 20.972 0.97045 0.141449
rclavicle 5.26282e-014 -3.926e-015
rhumerus -13.1322 6.75698 -45.2231
rradius 111.635
rwrist -53.8905
rhand 0.77883 -40.486
rfingers 7.12502
rthumb 26.3361 -68.6774
lclavicle 5.26282e-014 -3.926e-015
lhumerus 26.9224 7.64354 32.5883
lradius 93.6151
lwrist 57.2143
lhand -23.4359 -24.8992
lfingers 7.12502
lthumb 3.02214 5.05915
rfemur -52.2947 5.97806 15.857
rtibia 72.7381
rfoot 6.54382 0.379074
rtoes -20.2649
lfemur -29.0584 1.49613 -29.4983
ltibia 38.5615
lfoot -18.7669 11.8618
ltoes 7.63825
347
root 4.43095 16.9575 0.244717 11.6542 -0.163811 -1.21679
lowerback 2.5511 -2.77693 6.10626
upperback -1.43127 -3.46464 0.285537
thorax -3.25844 -1.85183 -2.9252
lowerneck -9.60342 1.7662 -1.64873
upperneck 48.1238 3.84333 -1.45451
head 20.8886 0.91663 0.245289
rclavicle -6.16232e-015 9.93923e-015
rhumerus -13.3132 7.21534 -45.866
rradius 111.469
rwrist -53.6757
rhand 0.826121 -40.6612
rfingers 7.12502
rthumb 26.3814 -68.8459
lclavicle -6.16232e-015 9.93923e-015
lhumerus 26.3101 7.10653 33.0586
lradius 93.8105
lwrist 57.3876
lhand -23.4959 -25.2171
lfingers 7.12502
lthumb 2.96418 4.742
rfemur -52.5433 6.11819 15.8776
rtibia 72.6551
rfoot 6.91974 1.3388
rtoes -20.3334
lfemur -29.3116 1.22031 -29.4461
ltibia 38.7414
lfoot -18.7307 12.076
ltoes 7.75984
348
root 4.42516 16.959 0.238769 11.7203 -0.189447 -1.39875
lowerback 2.63438 -2.76488 6.18659
upperback -1.44616 -3.43781 0.320372
thorax -3.32122 -1.84162 -2.93098
lowerneck -9.61433 1.7659 -1.68713
upperneck 48.1795 3.80998 -1.35487
head 20.9283 0.906856 0.297636
rclavicle 2.36492e-014 -1.54555e-014
rhumerus -13.4167 7.64758 -46.4776
rradius 111.356
rwrist -53.5549
rhand 0.888213 -40.2339
rfingers 7.12502
rthumb 26.4408 -68.4096
lclavicle 2.36492e-014 -1.54555e-014
lhumerus 25.7707 6.7751 33.5502
lradius 94.0106
lwrist 57.5929
lhand -23.6209 -26.3828
lfingers 7.12502
lthumb 2.84345 3.57797
rfemur -52.7165 6.3435 16.1431
rtibia 72.47
rfoot 7.48713 2.19611
rtoes -22.2507
lfemur -29.5195 0.976284 -29.2016
ltibia 38.885
lfoot -18.6185 12.4413
ltoes 7.35349
349
root 4.42211 16.9623 0.241784 11.7743 -0.21651 -1.58632
lowerback 2.63371 -2.74422 6.35091
upperback -1.33704 -3.40711 0.334447
thorax -3.2138 -1.82416 -3.01336
lowerneck -9.93949 1.83286 -1.62591
upperneck 48.3129 3.91182 -1.33001
head 21.1358 0.952987 0.323722
rclavicle -1.12438e-014 -5.2181e-015
rhumerus -13.4594 7.94441 -47.1094
rradius 111.276
rwrist -53.5985
rhand 0.330243 -39.6869
rfingers 7.12502
rthumb 25.9067 -67.9418
lclavicle -1.12438e-014 -5.2181e-015
lhumerus 25.4331 6.67783 34.0201
lradius 94.3969
lwrist 57.4428
lhand -23.6992 -25.2065
lfingers 7.12502
lthumb 2.76788 4.75529
rfemur -52.8004 6.45965 16.4539
rtibia 72.2746
rfoot 7.9571 2.72066
rtoes -24.9947
lfemur -29.6609 0.747404 -28.9652
ltibia 39.0302
lfoot -18.5854 12.825
ltoes 6.99429
350
root 4.41953 16.9553 0.249408 11.789 -0.308326 -1.59072
lowerback 2.28285 -2.69971 6.35073
upperback -0.979481 -3.38858 0.266198
thorax -2.64689 -1.79199 -3.11368
lowerneck -10.3575 1.89679 -1.43254
upperneck 48.2502 4.05911 -1.50896
head 21.2366 1.01938 0.229591
rclavicle 2.81024e-014 -5.24916e-015
rhumerus -13.2822 7.97388 -47.7892
rradius 111.164
rwrist -53.7814
rhand -0.396869 -39.5136
rfingers 7.12502
rthumb 25.2102 -67.8684
lclavicle 2.81024e-014 -5.24916e-015
lhumerus 25.3609 6.69138 34.5016
lradius 94.3028
lwrist 57.6871
lhand -23.6852 -27.2724
lfingers 7.12502
lthumb 2.78134 2.68921
rfemur -52.8504 6.49474 16.5863
rtibia 72.1903
rfoot 8.22935 2.52908
rtoes -23.4955
lfemur -29.7013 0.638549 -28.9545
ltibia 39.1879
lfoot -18.7086 13.0546
ltoes 7.01572
